<mxfile host="app.diagrams.net" modified="2024-06-07T08:48:52.096Z" agent="Mozilla/5.0 (Windows NT 10.0; Win64; x64) AppleWebKit/537.36 (KHTML, like Gecko) Chrome/120.0.0.0 Safari/537.36" etag="lWxs-u72ofrvJQqbofXL" version="24.5.1" type="device">
  <diagram id="C5RBs43oDa-KdzZeNtuy" name="Page-1">
    <mxGraphModel dx="712" dy="780" grid="1" gridSize="10" guides="1" tooltips="1" connect="1" arrows="1" fold="1" page="1" pageScale="1" pageWidth="827" pageHeight="1169" math="0" shadow="0">
      <root>
        <mxCell id="WIyWlLk6GJQsqaUBKTNV-0" />
        <mxCell id="WIyWlLk6GJQsqaUBKTNV-1" parent="WIyWlLk6GJQsqaUBKTNV-0" />
        <mxCell id="gmuJZKQF8rX9uiDVsCxH-1" value="IDENTIFICATION" style="rounded=0;whiteSpace=wrap;html=1;rotation=-90;" vertex="1" parent="WIyWlLk6GJQsqaUBKTNV-1">
          <mxGeometry x="60" y="90" width="160" height="40" as="geometry" />
        </mxCell>
        <mxCell id="gmuJZKQF8rX9uiDVsCxH-2" value="SCREENING" style="rounded=0;whiteSpace=wrap;html=1;rotation=-90;" vertex="1" parent="WIyWlLk6GJQsqaUBKTNV-1">
          <mxGeometry x="70" y="260" width="140" height="40" as="geometry" />
        </mxCell>
        <mxCell id="gmuJZKQF8rX9uiDVsCxH-3" value="ELIGIBILITY" style="rounded=0;whiteSpace=wrap;html=1;rotation=-90;" vertex="1" parent="WIyWlLk6GJQsqaUBKTNV-1">
          <mxGeometry x="60" y="430" width="160" height="40" as="geometry" />
        </mxCell>
        <mxCell id="gmuJZKQF8rX9uiDVsCxH-4" value="INCLUDE" style="rounded=0;whiteSpace=wrap;html=1;rotation=-90;" vertex="1" parent="WIyWlLk6GJQsqaUBKTNV-1">
          <mxGeometry x="90" y="615" width="100" height="40" as="geometry" />
        </mxCell>
        <mxCell id="gmuJZKQF8rX9uiDVsCxH-20" style="edgeStyle=orthogonalEdgeStyle;rounded=0;orthogonalLoop=1;jettySize=auto;html=1;exitX=0.25;exitY=1;exitDx=0;exitDy=0;entryX=0.5;entryY=0;entryDx=0;entryDy=0;" edge="1" parent="WIyWlLk6GJQsqaUBKTNV-1" source="gmuJZKQF8rX9uiDVsCxH-5" target="gmuJZKQF8rX9uiDVsCxH-13">
          <mxGeometry relative="1" as="geometry" />
        </mxCell>
        <mxCell id="gmuJZKQF8rX9uiDVsCxH-5" value="" style="rounded=0;whiteSpace=wrap;html=1;" vertex="1" parent="WIyWlLk6GJQsqaUBKTNV-1">
          <mxGeometry x="200" y="30" width="520" height="80" as="geometry" />
        </mxCell>
        <mxCell id="gmuJZKQF8rX9uiDVsCxH-6" value="Overall studies searched (n=1889)" style="text;strokeColor=none;align=center;fillColor=none;html=1;verticalAlign=middle;whiteSpace=wrap;rounded=0;" vertex="1" parent="WIyWlLk6GJQsqaUBKTNV-1">
          <mxGeometry x="360" y="80" width="210" height="30" as="geometry" />
        </mxCell>
        <mxCell id="gmuJZKQF8rX9uiDVsCxH-7" value="IEEExplore&lt;div&gt;(n=99)&lt;/div&gt;" style="text;strokeColor=none;align=center;fillColor=none;html=1;verticalAlign=middle;whiteSpace=wrap;rounded=0;" vertex="1" parent="WIyWlLk6GJQsqaUBKTNV-1">
          <mxGeometry x="210" y="40" width="60" height="30" as="geometry" />
        </mxCell>
        <mxCell id="gmuJZKQF8rX9uiDVsCxH-8" value="ACM Digital Library&lt;div&gt;(n=1170)&lt;/div&gt;" style="text;strokeColor=none;align=center;fillColor=none;html=1;verticalAlign=middle;whiteSpace=wrap;rounded=0;" vertex="1" parent="WIyWlLk6GJQsqaUBKTNV-1">
          <mxGeometry x="290" y="40" width="120" height="30" as="geometry" />
        </mxCell>
        <mxCell id="gmuJZKQF8rX9uiDVsCxH-10" value="PubMed&lt;div&gt;(n=5)&lt;/div&gt;" style="text;strokeColor=none;align=center;fillColor=none;html=1;verticalAlign=middle;whiteSpace=wrap;rounded=0;" vertex="1" parent="WIyWlLk6GJQsqaUBKTNV-1">
          <mxGeometry x="630" y="40" width="60" height="30" as="geometry" />
        </mxCell>
        <mxCell id="gmuJZKQF8rX9uiDVsCxH-11" value="Scopus&lt;div&gt;(n=195)&lt;/div&gt;" style="text;strokeColor=none;align=center;fillColor=none;html=1;verticalAlign=middle;whiteSpace=wrap;rounded=0;" vertex="1" parent="WIyWlLk6GJQsqaUBKTNV-1">
          <mxGeometry x="420" y="40" width="60" height="30" as="geometry" />
        </mxCell>
        <mxCell id="gmuJZKQF8rX9uiDVsCxH-12" value="Wiley Online Library&lt;div&gt;(n=1170)&lt;/div&gt;" style="text;strokeColor=none;align=center;fillColor=none;html=1;verticalAlign=middle;whiteSpace=wrap;rounded=0;" vertex="1" parent="WIyWlLk6GJQsqaUBKTNV-1">
          <mxGeometry x="490" y="40" width="120" height="30" as="geometry" />
        </mxCell>
        <mxCell id="gmuJZKQF8rX9uiDVsCxH-21" value="" style="edgeStyle=orthogonalEdgeStyle;rounded=0;orthogonalLoop=1;jettySize=auto;html=1;" edge="1" parent="WIyWlLk6GJQsqaUBKTNV-1" source="gmuJZKQF8rX9uiDVsCxH-13" target="gmuJZKQF8rX9uiDVsCxH-15">
          <mxGeometry relative="1" as="geometry" />
        </mxCell>
        <mxCell id="gmuJZKQF8rX9uiDVsCxH-24" value="" style="edgeStyle=orthogonalEdgeStyle;rounded=0;orthogonalLoop=1;jettySize=auto;html=1;" edge="1" parent="WIyWlLk6GJQsqaUBKTNV-1" source="gmuJZKQF8rX9uiDVsCxH-13" target="gmuJZKQF8rX9uiDVsCxH-14">
          <mxGeometry relative="1" as="geometry" />
        </mxCell>
        <mxCell id="gmuJZKQF8rX9uiDVsCxH-13" value="&lt;div&gt;Articl&lt;span style=&quot;color: rgba(0, 0, 0, 0); font-family: monospace; font-size: 0px; text-align: start; text-wrap: nowrap; background-color: initial;&quot;&gt;%3CmxGraphModel%3E%3Croot%3E%3CmxCell%20id%3D%220%22%2F%3E%3CmxCell%20id%3D%221%22%20parent%3D%220%22%2F%3E%3CmxCell%20id%3D%222%22%20value%3D%22Articles%20to%20be%20screened%22%20style%3D%22rounded%3D0%3BwhiteSpace%3Dwrap%3Bhtml%3D1%3B%22%20vertex%3D%221%22%20parent%3D%221%22%3E%3CmxGeometry%20x%3D%22230%22%20y%3D%22160%22%20width%3D%22210%22%20height%3D%22100%22%20as%3D%22geometry%22%2F%3E%3C%2FmxCell%3E%3C%2Froot%3E%3C%2FmxGraphModel%3E&lt;/span&gt;&lt;span style=&quot;background-color: initial;&quot;&gt;es to be screened&lt;/span&gt;&lt;/div&gt;&lt;span style=&quot;color: rgba(0, 0, 0, 0); font-family: monospace; font-size: 0px; text-align: start; text-wrap: nowrap;&quot;&gt;%3CmxGraphModel%3E%3Croot%3E%3CmxCell%20id%3D%220%22%2F%3E%3CmxCell%20id%3D%221%22%20parent%3D%220%22%2F%3E%3CmxCell%20id%3D%222%22%20value%3D%22Articles%20to%20be%20screened%22%20style%3D%22rounded%3D0%3BwhiteSpace%3Dwrap%3Bhtml%3D1%3B%22%20vertex%3D%221%22%20parent%3D%221%22%3E%3CmxGeometry%20x%3D%22230%22%20y%3D%22160%22%20width%3D%22210%22%20height%3D%22100%22%20as%3D%22geometry%22%2F%3E%3C%2FmxCell%3E%3C%2Froot%3E%3C%2FmxGraphModel%3E&lt;/span&gt;(n=1624)" style="rounded=0;whiteSpace=wrap;html=1;" vertex="1" parent="WIyWlLk6GJQsqaUBKTNV-1">
          <mxGeometry x="225" y="160" width="210" height="100" as="geometry" />
        </mxCell>
        <mxCell id="gmuJZKQF8rX9uiDVsCxH-14" value="Exclusion by:&lt;div&gt;&lt;br&gt;&lt;/div&gt;&lt;div&gt;-Duplicated articles&lt;/div&gt;&lt;div&gt;-Not published between 2019 - 2024&lt;/div&gt;&lt;div&gt;-No related abstract&lt;/div&gt;&lt;div&gt;-Not in English&lt;/div&gt;&lt;div&gt;(n=266)&lt;/div&gt;" style="rounded=0;whiteSpace=wrap;html=1;" vertex="1" parent="WIyWlLk6GJQsqaUBKTNV-1">
          <mxGeometry x="500" y="160" width="210" height="100" as="geometry" />
        </mxCell>
        <mxCell id="gmuJZKQF8rX9uiDVsCxH-22" value="" style="edgeStyle=orthogonalEdgeStyle;rounded=0;orthogonalLoop=1;jettySize=auto;html=1;" edge="1" parent="WIyWlLk6GJQsqaUBKTNV-1" source="gmuJZKQF8rX9uiDVsCxH-15" target="gmuJZKQF8rX9uiDVsCxH-17">
          <mxGeometry relative="1" as="geometry" />
        </mxCell>
        <mxCell id="gmuJZKQF8rX9uiDVsCxH-25" value="" style="edgeStyle=orthogonalEdgeStyle;rounded=0;orthogonalLoop=1;jettySize=auto;html=1;" edge="1" parent="WIyWlLk6GJQsqaUBKTNV-1" source="gmuJZKQF8rX9uiDVsCxH-15" target="gmuJZKQF8rX9uiDVsCxH-16">
          <mxGeometry relative="1" as="geometry" />
        </mxCell>
        <mxCell id="gmuJZKQF8rX9uiDVsCxH-15" value="&lt;div&gt;Articl&lt;span style=&quot;color: rgba(0, 0, 0, 0); font-family: monospace; font-size: 0px; text-align: start; text-wrap: nowrap; background-color: initial;&quot;&gt;%3CmxGraphModel%3E%3Croot%3E%3CmxCell%20id%3D%220%22%2F%3E%3CmxCell%20id%3D%221%22%20parent%3D%220%22%2F%3E%3CmxCell%20id%3D%222%22%20value%3D%22Articles%20to%20be%20screened%22%20style%3D%22rounded%3D0%3BwhiteSpace%3Dwrap%3Bhtml%3D1%3B%22%20vertex%3D%221%22%20parent%3D%221%22%3E%3CmxGeometry%20x%3D%22230%22%20y%3D%22160%22%20width%3D%22210%22%20height%3D%22100%22%20as%3D%22geometry%22%2F%3E%3C%2FmxCell%3E%3C%2Froot%3E%3C%2FmxGraphModel%3E&lt;/span&gt;&lt;span style=&quot;background-color: initial;&quot;&gt;es to be assessed for eligibility&lt;/span&gt;&lt;/div&gt;&lt;span style=&quot;color: rgba(0, 0, 0, 0); font-family: monospace; font-size: 0px; text-align: start; text-wrap: nowrap;&quot;&gt;%3CmxGraphModel%3E%3Croot%3E%3CmxCell%20id%3D%220%22%2F%3E%3CmxCell%20id%3D%221%22%20parent%3D%220%22%2F%3E%3CmxCell%20id%3D%222%22%20value%3D%22Articles%20to%20be%20screened%22%20style%3D%22rounded%3D0%3BwhiteSpace%3Dwrap%3Bhtml%3D1%3B%22%20vertex%3D%221%22%20parent%3D%221%22%3E%3CmxGeometry%20x%3D%22230%22%20y%3D%22160%22%20width%3D%22210%22%20height%3D%22100%22%20as%3D%22geometry%22%2F%3E%3C%2FmxCell%3E%3C%2Froot%3E%3C%2FmxGraphModel%3E&lt;/span&gt;(n=87)" style="rounded=0;whiteSpace=wrap;html=1;" vertex="1" parent="WIyWlLk6GJQsqaUBKTNV-1">
          <mxGeometry x="225" y="300" width="210" height="100" as="geometry" />
        </mxCell>
        <mxCell id="gmuJZKQF8rX9uiDVsCxH-16" value="Exclusion by:&lt;div&gt;&lt;br&gt;&lt;/div&gt;&lt;div&gt;-Title not related&lt;/div&gt;&lt;div&gt;-No DOI or URL&lt;/div&gt;&lt;div&gt;-Article can no longer be searched&lt;/div&gt;&lt;div&gt;-Not open-accessed&lt;/div&gt;&lt;div&gt;(n=1536)&lt;/div&gt;" style="rounded=0;whiteSpace=wrap;html=1;" vertex="1" parent="WIyWlLk6GJQsqaUBKTNV-1">
          <mxGeometry x="500" y="300" width="210" height="100" as="geometry" />
        </mxCell>
        <mxCell id="gmuJZKQF8rX9uiDVsCxH-23" value="" style="edgeStyle=orthogonalEdgeStyle;rounded=0;orthogonalLoop=1;jettySize=auto;html=1;" edge="1" parent="WIyWlLk6GJQsqaUBKTNV-1" source="gmuJZKQF8rX9uiDVsCxH-17" target="gmuJZKQF8rX9uiDVsCxH-19">
          <mxGeometry relative="1" as="geometry" />
        </mxCell>
        <mxCell id="gmuJZKQF8rX9uiDVsCxH-26" value="" style="edgeStyle=orthogonalEdgeStyle;rounded=0;orthogonalLoop=1;jettySize=auto;html=1;" edge="1" parent="WIyWlLk6GJQsqaUBKTNV-1" source="gmuJZKQF8rX9uiDVsCxH-17" target="gmuJZKQF8rX9uiDVsCxH-18">
          <mxGeometry relative="1" as="geometry" />
        </mxCell>
        <mxCell id="gmuJZKQF8rX9uiDVsCxH-17" value="&lt;div style=&quot;text-align: center;&quot;&gt;&lt;span style=&quot;background-color: initial; text-align: start;&quot;&gt;Articles assessed for Quality Assessment&lt;/span&gt;&lt;/div&gt;&lt;div style=&quot;text-align: center;&quot;&gt;&lt;span style=&quot;background-color: initial; text-wrap: nowrap; color: rgba(0, 0, 0, 0); font-family: monospace; font-size: 0px; text-align: start;&quot;&gt;%3CmxGraphModel%3E%3Croot%3E%3CmxCell%20id%3D%220%22%2F%3E%3CmxCell%20id%3D%221%22%20parent%3D%220%22%2F%3E%3CmxCell%20id%3D%222%22%20value%3D%22Articles%20to%20be%20screened%22%20style%3D%22rounded%3D0%3BwhiteSpace%3Dwrap%3Bhtml%3D1%3B%22%20vertex%3D%221%22%20parent%3D%221%22%3E%3CmxGeometry%20x%3D%22230%22%20y%3D%22160%22%20width%3D%22210%22%20height%3D%22100%22%20as%3D%22geometry%22%2F%3E%3C%2FmxCell%3E%3C%2Froot%3E%3C%2FmxGraphModel%3E&lt;/span&gt;&lt;span style=&quot;background-color: initial;&quot;&gt;(n=13)&lt;/span&gt;&lt;br&gt;&lt;/div&gt;" style="rounded=0;whiteSpace=wrap;html=1;" vertex="1" parent="WIyWlLk6GJQsqaUBKTNV-1">
          <mxGeometry x="225" y="430" width="210" height="100" as="geometry" />
        </mxCell>
        <mxCell id="gmuJZKQF8rX9uiDVsCxH-18" value="&lt;div style=&quot;&quot;&gt;Exclusion by Quality Assessment Score:&lt;/div&gt;&lt;div style=&quot;&quot;&gt;&lt;br&gt;&lt;/div&gt;&lt;div style=&quot;&quot;&gt;-Quality score below 3&lt;/div&gt;&lt;div style=&quot;&quot;&gt;(n=74)&lt;/div&gt;" style="rounded=0;whiteSpace=wrap;html=1;align=center;" vertex="1" parent="WIyWlLk6GJQsqaUBKTNV-1">
          <mxGeometry x="500" y="430" width="210" height="100" as="geometry" />
        </mxCell>
        <mxCell id="gmuJZKQF8rX9uiDVsCxH-19" value="&lt;div style=&quot;text-align: center;&quot;&gt;&lt;span style=&quot;background-color: initial; text-align: start;&quot;&gt;Articles included as primary studies&lt;/span&gt;&lt;/div&gt;&lt;div style=&quot;text-align: center;&quot;&gt;&lt;span style=&quot;background-color: initial; text-wrap: nowrap; color: rgba(0, 0, 0, 0); font-family: monospace; font-size: 0px; text-align: start;&quot;&gt;%3CmxGraphModel%3E%3Croot%3E%3CmxCell%20id%3D%220%22%2F%3E%3CmxCell%20id%3D%221%22%20parent%3D%220%22%2F%3E%3CmxCell%20id%3D%222%22%20value%3D%22Articles%20to%20be%20screened%22%20style%3D%22rounded%3D0%3BwhiteSpace%3Dwrap%3Bhtml%3D1%3B%22%20vertex%3D%221%22%20parent%3D%221%22%3E%3CmxGeometry%20x%3D%22230%22%20y%3D%22160%22%20width%3D%22210%22%20height%3D%22100%22%20as%3D%22geometry%22%2F%3E%3C%2FmxCell%3E%3C%2Froot%3E%3C%2FmxGraphModel%3E&lt;/span&gt;&lt;span style=&quot;background-color: initial;&quot;&gt;(n=15)&lt;/span&gt;&lt;br&gt;&lt;/div&gt;" style="rounded=0;whiteSpace=wrap;html=1;" vertex="1" parent="WIyWlLk6GJQsqaUBKTNV-1">
          <mxGeometry x="225" y="585" width="210" height="100" as="geometry" />
        </mxCell>
      </root>
    </mxGraphModel>
  </diagram>
</mxfile>
